<svg width="50" height="32" viewBox="0 0 50 32" fill="none" xmlns="http://www.w3.org/2000/svg">
<path d="M14.5437 0.375C15.9844 0.375 17.3156 0.484375 18.5375 0.8125C19.7563 1.03125 20.7594 1.4875 21.65 2.03437C22.5406 2.58125 23.2031 3.36562 23.6531 4.36875C24.0906 5.36875 24.3281 6.59062 24.3281 7.92188C24.3281 9.47188 23.9969 10.8031 23.2156 11.8031C22.5437 12.8031 21.4469 13.6969 20.1 14.3562C21.9937 14.9062 23.4344 15.9062 24.3125 17.2375C25.1906 18.5688 25.7531 20.2281 25.7531 22.1219C25.7531 23.6719 25.425 25.0031 24.8625 26.1156C24.3034 27.2368 23.461 28.1923 22.4187 28.8875C21.4187 29.5594 20.1969 30.1062 18.8656 30.4375C17.5617 30.7828 16.2206 30.9675 14.8719 30.9875L0 31.0094V0.375H14.5437ZM13.6531 12.8063C14.8719 12.8063 15.8719 12.4781 16.6438 11.9156C17.4125 11.3531 17.7531 10.3625 17.7531 9.14375C17.7531 8.46875 17.6438 7.8125 17.425 7.37187C17.1862 6.92669 16.8431 6.54603 16.425 6.2625C15.9723 6.0139 15.4876 5.82883 14.9844 5.7125C14.4344 5.60313 13.8719 5.60312 13.2125 5.60312H6.78125V12.8219C6.78125 12.8062 13.6531 12.8063 13.6531 12.8063ZM13.9812 25.9094C14.6531 25.9094 15.3125 25.8 15.875 25.6906C16.425 25.5812 16.9875 25.3594 17.425 25.0156C17.8625 24.6719 18.2063 24.3438 18.5375 23.7969C18.7563 23.2469 18.975 22.575 18.975 21.7938C18.975 20.2437 18.5375 19.1313 17.6437 18.35C16.7531 17.6781 15.5312 17.35 14.0906 17.35H6.78125V25.8938H13.9844L13.9812 25.9094ZM35.4125 25.8C36.3042 26.6896 37.6354 27.1333 39.4062 27.1313C40.625 27.1313 41.7375 26.8 42.6313 26.2375C43.5187 25.5708 44.0708 24.9042 44.2875 24.2375H49.725C48.8312 26.8969 47.5 28.7906 45.7313 30.0125C43.9625 31.1219 41.8469 31.7812 39.2938 31.7812C37.6609 31.7912 36.0412 31.4889 34.5219 30.8906C33.1522 30.3852 31.9307 29.5451 30.9688 28.4469C29.94 27.4253 29.1763 26.1681 28.7437 24.7844C28.1969 23.3438 27.9625 21.7938 27.9625 20.0094C27.9625 18.35 28.1812 16.7844 28.7437 15.3438C29.3062 13.9062 30.075 12.6813 31.0781 11.5719C32.0781 10.5719 33.3 9.67813 34.6312 9.12813C36.1152 8.53578 37.699 8.23345 39.2969 8.2375C41.1906 8.2375 42.85 8.56562 44.2906 9.34687C45.7281 10.1281 46.8438 11.0094 47.7344 12.3406C48.625 13.5594 49.2844 15 49.7375 16.5531C49.9563 18.1031 50.0656 19.6656 49.9562 21.4375H33.8625C33.8625 23.25 34.5187 24.9062 35.4125 25.8ZM42.4125 14.1375C41.6312 13.3562 40.4062 12.9156 38.9656 12.9156C37.9656 12.9156 37.1969 13.1344 36.525 13.4656C35.8531 13.7969 35.4125 14.2469 34.975 14.6844C34.567 15.1136 34.2952 15.654 34.1938 16.2375C34.0813 16.7844 33.975 17.2375 33.975 17.675H43.9625C43.7437 16.0313 43.1844 14.9187 42.4125 14.1375ZM32.6406 2.4875H45.0719V5.47812H32.6406V2.4875Z" fill="#FBF6F1"/>
</svg>
