<?xml version="1.0" encoding="utf-8"?>
<!-- Generator: Adobe Illustrator 27.8.1, SVG Export Plug-In . SVG Version: 6.00 Build 0)  -->
<svg version="1.1" id="Layer_1" xmlns="http://www.w3.org/2000/svg" xmlns:xlink="http://www.w3.org/1999/xlink" x="0px" y="0px"
	 viewBox="0 0 47 47" style="enable-background:new 0 0 47 47;" xml:space="preserve">
<style type="text/css">
	.st0{fill:#FAF3ED;}
</style>
<path class="st0" d="M23.5,0c-6.4,0-7.2,0-9.7,0.1c-2.5,0.1-4.2,0.5-5.7,1.1c-1.6,0.6-3,1.5-4.2,2.7C2.7,5.1,1.8,6.5,1.2,8.1
	c-0.6,1.5-1,3.2-1.1,5.7C0,16.3,0,17.1,0,23.5c0,6.4,0,7.2,0.1,9.7c0.1,2.5,0.5,4.2,1.1,5.7c0.6,1.5,1.4,2.9,2.7,4.2
	c1.3,1.3,2.6,2.1,4.2,2.7c1.5,0.6,3.2,1,5.7,1.1c2.5,0.1,3.3,0.1,9.7,0.1s7.2,0,9.7-0.1c2.5-0.1,4.2-0.5,5.7-1.1
	c1.6-0.6,3-1.5,4.2-2.7c1.3-1.3,2.1-2.6,2.7-4.2c0.6-1.5,1-3.2,1.1-5.7c0.1-2.5,0.1-3.3,0.1-9.7s0-7.2-0.1-9.7
	c-0.1-2.5-0.5-4.2-1.1-5.7c-0.6-1.6-1.5-3-2.7-4.2c-1.2-1.2-2.6-2.1-4.2-2.7c-1.5-0.6-3.2-1-5.7-1.1C30.7,0,29.9,0,23.5,0L23.5,0z
	 M21.4,4.2h2.1c6.3,0,7,0,9.5,0.1c2.3,0.1,3.5,0.5,4.4,0.8c1.1,0.4,1.9,0.9,2.7,1.8c0.8,0.8,1.3,1.6,1.8,2.7
	c0.3,0.8,0.7,2.1,0.8,4.4c0.1,2.5,0.1,3.2,0.1,9.5c0,6.3,0,7-0.1,9.5c-0.1,2.3-0.5,3.5-0.8,4.4c-0.4,1-1,1.9-1.8,2.7
	c-0.8,0.8-1.6,1.3-2.7,1.8c-0.8,0.3-2.1,0.7-4.4,0.8c-2.5,0.1-3.2,0.1-9.5,0.1s-7,0-9.5-0.1c-2.3-0.1-3.5-0.5-4.4-0.8
	c-1-0.4-1.9-1-2.7-1.8c-0.8-0.8-1.4-1.7-1.8-2.7c-0.3-0.8-0.7-2.1-0.8-4.4c-0.1-2.5-0.1-3.2-0.1-9.5c0-6.3,0-7,0.1-9.5
	c0.1-2.3,0.5-3.5,0.8-4.4c0.4-1.1,0.9-1.9,1.8-2.7s1.6-1.3,2.7-1.8c0.8-0.3,2.1-0.7,4.4-0.8C16.2,4.3,17,4.2,21.4,4.2L21.4,4.2z
	 M36,8.1c-0.4,0-0.7,0.1-1.1,0.2c-0.3,0.1-0.7,0.3-0.9,0.6c-0.3,0.3-0.5,0.6-0.6,0.9c-0.1,0.3-0.2,0.7-0.2,1.1
	c0,0.4,0.1,0.7,0.2,1.1c0.1,0.3,0.3,0.7,0.6,0.9c0.3,0.3,0.6,0.5,0.9,0.6c0.3,0.1,0.7,0.2,1.1,0.2c0.7,0,1.5-0.3,2-0.8
	c0.5-0.5,0.8-1.2,0.8-2S38.6,9.5,38,9C37.5,8.4,36.8,8.1,36,8.1z M23.5,11.4c-1.6,0-3.2,0.3-4.7,0.9c-1.5,0.6-2.8,1.5-4,2.6
	c-1.1,1.1-2,2.5-2.7,3.9c-0.6,1.5-0.9,3.1-0.9,4.7c0,1.6,0.3,3.2,0.9,4.7c0.6,1.5,1.5,2.8,2.7,3.9c1.1,1.1,2.5,2,4,2.6
	c1.5,0.6,3.1,0.9,4.7,0.9c3.2,0,6.2-1.3,8.4-3.6c2.2-2.3,3.5-5.3,3.5-8.5s-1.2-6.2-3.5-8.5C29.7,12.8,26.7,11.5,23.5,11.4z
	 M23.5,15.7c1,0,2,0.2,3,0.6c1,0.4,1.8,1,2.5,1.7c0.7,0.7,1.3,1.6,1.7,2.5s0.6,2,0.6,3s-0.2,2-0.6,3s-1,1.8-1.7,2.5
	c-0.7,0.7-1.6,1.3-2.5,1.7c-1,0.4-2,0.6-3,0.6c-2.1,0-4.1-0.8-5.5-2.3c-1.5-1.5-2.3-3.5-2.3-5.5s0.8-4.1,2.3-5.5
	C19.4,16.5,21.4,15.7,23.5,15.7z"/>
</svg>
