<?xml version="1.0" encoding="utf-8"?>
<!-- Generator: Adobe Illustrator 27.8.1, SVG Export Plug-In . SVG Version: 6.00 Build 0)  -->
<svg version="1.1" id="Layer_1" xmlns="http://www.w3.org/2000/svg" xmlns:xlink="http://www.w3.org/1999/xlink" x="0px" y="0px"
	 viewBox="0 0 44 44" style="enable-background:new 0 0 44 44;" xml:space="preserve">
<style type="text/css">
	.st0{fill:#FAF3ED;}
</style>
<path class="st0" d="M0,3.2C0,1.4,1.4,0,3.2,0h37.5C42.6,0,44,1.4,44,3.2v37.7c0,1.7-1.4,3.2-3.2,3.2H3.2C1.4,44,0,42.6,0,40.8V3.2z
	 M13.6,36.8V17H7v19.9H13.6z M10.3,14.3c2.3,0,3.7-1.5,3.7-3.4c0-1.9-1.4-3.4-3.7-3.4c-2.3,0-3.7,1.5-3.7,3.4
	C6.6,12.7,8,14.3,10.3,14.3L10.3,14.3z M23.8,36.8V25.7c0-0.6,0-1.2,0.2-1.6c0.5-1.2,1.6-2.4,3.4-2.4c2.4,0,3.3,1.8,3.3,4.5v10.6
	h6.6V25.4c0-6.1-3.3-8.9-7.6-8.9c-3.5,0-5.1,1.9-6,3.3v0.1h0l0-0.1V17h-6.6c0.1,1.9,0,19.9,0,19.9H23.8z"/>
</svg>
