<?xml version="1.0" encoding="utf-8"?>
<!-- Generator: Adobe Illustrator 27.8.1, SVG Export Plug-In . SVG Version: 6.00 Build 0)  -->
<svg version="1.1" id="Layer_1" xmlns="http://www.w3.org/2000/svg" xmlns:xlink="http://www.w3.org/1999/xlink" x="0px" y="0px"
	 viewBox="0 0 1050 1050" style="enable-background:new 0 0 1050 1050;" xml:space="preserve">
<style type="text/css">
	.st0{fill:#EEE3D9;}
</style>
<g>
	<path class="st0" d="M764,271.5c-50-44.3-164.7-125.9-164.7-125.9c-4.6-3.7-11.4-3.2-15.3,1.3c-3.9,4.5-3.4,11.4,1.1,15.4
		c19.7,17.4,41.7,32.7,62.8,48.5c45.4,34.1,88.3,66.2,127.6,109.3c27.2,29.9,57.1,60.9,72.2,99.2c5.9,15,10.6,40.3-3.9,52.3
		c-20.7,17-59.4,0.6-80.1-8.1c-68.1-30.5-129.4-73.7-191.2-114.8c-58.9-39.2-118.4-78.6-182.6-108.8c-47.3-22.2-131.2-43.6-149.4,26
		c-10.9,41.2,20,83.1,46.8,111c84.2,87.6,184.9,159.1,280.5,233.6c29.8,23.3,69.1,57.1,96.4,83.4c31.8,30.6,84.9,80.5,65.2,126.2
		c-9.2,21.2-26.3,31.8-47.5,37.3c-17.5,4.5-37.2,3.6-55.1,2.3c-53.5-3.8-132.1-27.3-180.9-46.2c4.5-17.4,7.5-37.7,8.4-61.4
		c1.8-45.5-3.8-83.2-17.3-114.9c-16.6-39-45.8-68.8-80.1-81.6c-38.7-14.4-83.4-5.3-108.9,22.5c-25.9,28.3-31.6,74.5-14.1,115.1
		c14.1,32.6,41.7,62.1,82.3,87.7c30.7,19.4,63.9,35,96.8,48c2.5,1.1-13.3,29.7-25.2,43.4c-54.5,63.4-145.8,45.1-213.7,13
		c-2.8-1.4-9.6-2.8-12.5,2.6c-3.6,6.4-0.3,11.3,3.3,12.9C222.8,926.3,254,934,297,934.1c29.8,0.1,63.8-8.2,88-25.5
		c16.3-11.7,39.9-37.4,52.8-70.3c20.7,7.5,40.9,14,60.2,20c59.7,18.4,123.6,35.6,186.4,24.5c51.6-9.3,88.2-55.9,72.1-109
		c-11.6-38.3-43.4-70.3-69.1-96c-58.4-58.5-123-110.4-187.3-162.2c-47.9-38.6-96.3-77.2-141.4-119c-29.4-27.3-80.4-69.4-81.8-113.4
		c-0.5-16.9,15.7-28.9,31.2-29.3c38.2-1.2,73.9,25,105.2,43.5c46.6,27.5,91.5,57.5,137.2,86.5c63,41,128.2,83.4,198.8,113.7
		c43.8,17.6,112.9,33.6,136.4-22.1C912.6,407,808.5,312.1,764,271.5z M322,749c-36.6-28-57.8-58.4-62.9-90.2
		c-1.8-11-2.3-27.1,5.2-42.1c10-20,33.2-32.7,57.5-32.7c4.8,0,9.8,0.5,14.7,1.6c25.7,5.6,49,24.6,64,52.1
		c14.8,27.1,19.5,58.2,22,82.1c3.5,33.2,3,60-1.9,83.8C385.5,788.9,352.3,772.3,322,749z"/>
</g>
</svg>
