<?xml version="1.0" encoding="utf-8"?>
<!-- Generator: Adobe Illustrator 27.8.1, SVG Export Plug-In . SVG Version: 6.00 Build 0)  -->
<svg version="1.1" id="Layer_1" xmlns="http://www.w3.org/2000/svg" xmlns:xlink="http://www.w3.org/1999/xlink" x="0px" y="0px"
	 viewBox="0 0 1600 1600" style="enable-background:new 0 0 1600 1600;" xml:space="preserve">
<style type="text/css">
	.st0{fill:#EEE3D9;}
</style>
<path class="st0" d="M478.4,518.4c4.5,51-19.5,83.2-43.2,124.1C403.1,698.3,343,774.3,359.9,806c6.7,12.6,28.5-0.2,40.4-8.3
	c115.3-79.5,184.3-202.4,318.1-293.1c30.7-20.8,62.4-20.9,85.8-2.2c22.6,18,16.7,49.7,8.2,71.9C799,609.5,727.3,739.6,715.2,772
	c-20.2,54.4,11,25.3,33.4,7.3c26-20.7,49.7-43.9,73.3-67.6c63.8-64.2,123.4-132.5,188.6-195.6c31.2-30.1,115-105.2,163-61.2
	c37.6,34.8-5.7,100.9-25.4,133.7c-81.9,136.5-179.8,262-271.9,391.5c-52,72.8-101.3,147.6-150.3,222.3
	c-11.4,17.5-48.6,68.8-34.4,80.2c10.4,9.2,46.4-25.6,61.9-41.3c57.3-57.9,89.9-91.9,134.4-141.4c46.8-52.1,116.7-129.7,196.8-95.9
	c21.7,9.1,41.2,28,64.9,32c29.3,4.9,56.9-12.9,83.7-25.7s66.2-26.5,95.3,3.1c46.3,47.1-14.8,111.3-20.9,148.2
	c-5.5,33,25.4,57.1,42.9,73.3c18.3,17,54.5,37.3,58.9,45.9c6.1,11.7-4.9,18.2-12.7,14.5c-12.1-5.9-126.2-79-130.5-128.9
	c-4.3-49.8,43.9-92.5,36.6-128.8c-4.5-22.3-39.2-10.1-59.6,0.4c-36.9,19.1-57.3,37.2-98.3,30.6c-34.2-5.5-51.6-33.7-93.5-37.6
	c-41.4-3.8-99.1,49.9-120.3,73c-110.1,120-197.9,232.8-253.3,219.2c-68.1-16.6-38.4-95.1-23.1-124c22-41.5,48.5-81.4,74.5-120.5
	c62.2-93.6,130.8-182.6,198.4-272.2c60.8-80.6,120.9-162,174.6-247.5c5.3-8.5,46.5-65.4,33.9-82.5c-26-35.3-135.4,90.3-151,106
	C921.3,646.5,763,830.7,708.8,837.9c-31,4.1-59.7-27-45.2-66.9c26.6-73.8,74.5-139.5,105.1-212.1c3.7-8.9,6.9-30.4-3.5-36.6
	c-15.2-9.2-45.9,17-56.5,25.4c-101,79.8-176.4,189-279.5,266.3c-22,16.6-59.7,35.4-85.6,12.8c-17.9-15.5-26.1-42.9-19.7-65.8
	c19.1-68.1,66.9-130.7,98.9-193.8c33.9-66.7-23.9-134.6-103.4-194.9c-73.7-55.9-184.5-135-172.3-153.7
	c17.1-26.2,64.9,48.1,173.1,118.7C421.5,403.4,475,479.7,478.4,518.4z"/>
</svg>
