<?xml version="1.0" encoding="utf-8"?>
<!-- Generator: Adobe Illustrator 27.8.1, SVG Export Plug-In . SVG Version: 6.00 Build 0)  -->
<svg version="1.1" id="Layer_1" xmlns="http://www.w3.org/2000/svg" xmlns:xlink="http://www.w3.org/1999/xlink" x="0px" y="0px"
	 viewBox="0 0 1050 1050" style="enable-background:new 0 0 1050 1050;" xml:space="preserve">
<style type="text/css">
	.st0{fill:#EEE3D9;}
</style>
<g>
	<g>
		<path class="st0" d="M1001.4,496c-10.9-51.7-46.7-92.2-103.6-117.1c-36.5-16-82.1-25.5-128.7-26.6c16.8-52.5,18.8-99.7,5.9-140.3
			c-14-43.9-44.4-77.5-90.5-99.7c-59.8-28.9-113.6-19.7-148.2-6.9c-41.2,15.2-78.3,44-101.8,78.9c-14.8,22.1-26.9,46.1-36,71.5
			c-3-2-6-4-9.1-5.9c-59.9-37.6-107.8-40.6-137.5-36.5c-44.7,6.2-86.3,29.6-114.3,64.3C97.9,327,95.7,382.6,100.8,420.6
			c6.6,49,29.7,95.3,64.9,130.4c3.3,3.3,6.7,6.4,10.1,9.4c-5,8.5-9.7,17.6-13.7,27.2c-4.7,11-8.5,22.1-11.4,33
			c-2.1,8.5,2.4,17,8.1,17.6c7,0.8,10.9-7.9,12.6-14.8c1.9-7.9,4.6-16.3,9-26.9c0.9-2.1,8.3-17.8,11.1-23.2
			c32.4,20.4,75.4,35.4,107.1,35.8c27.8,0.4,51.8-9.8,65.8-28c12-15.5,15.8-35.7,9.8-56.4c-7.8-26.9-39.4-36.6-64.2-39
			c-33.8-3.3-67.5,6.2-94,27.6c-7.6,6.1-14.7,13-21.2,20.6c-2.1-1.9-4.2-3.9-6.3-5.9c-30.2-30.1-50-69.8-55.7-111.8
			c-6.2-45.5,3.9-86.9,30.1-122.9c27.5-37.6,60.7-54.1,99.3-57.4c38.4-3.3,76.5,6.7,113.2,29.8c5.5,3.5,11.1,7.2,16.6,11.2
			c-14.2,59.2-9.5,98.5-6.8,111.1c5.2,23.8,17.4,41.9,34.4,50.9c13.4,7.1,28.5,8,42.5,2.4c14.9-6,25.4-17,30.5-31.8
			c6.8-20.2,2.4-47.4-11.6-70.8c-12.2-20.5-31.9-42.6-55.5-62.4c8.2-25.9,20.5-51.4,35.7-74c19.5-29,51.7-53.9,86.1-66.6
			c28.9-10.7,68.8-20,121.3,3c41.3,18.1,73.5,49.9,84,83c10.9,34.3,8.8,75.1-6.1,121.4c-1,3.1-2.2,6.4-3.6,9.7
			c-43.1,2.7-86.1,11.1-112.4,22.2c-31.6,13.3-53,31.1-61.9,51.4c-8.4,19.1-5.1,38.8,9.3,55.7c13.5,15.9,32,22,53.3,17.8
			c34.2-6.8,66.9-39.1,83.3-57.7c15.9-18.1,29.9-38,40.4-57.6c46.4-0.5,93.6,8.2,129.7,24c23.2,10.2,43.7,25,59.3,42.9
			c15.4,17.6,25.8,37.8,30.2,58.4c9.6,45.5,1.6,88.2-22.6,120.4c-28.3,37.6-76.6,59.9-139.8,64.5c-5.5,0.4-11.2,0.6-17,0.7
			c-16-34.4-33.8-58.4-59.4-79.8c-19.9-16.7-55.6-30.3-82.4-22.4c-16.1,4.7-27.3,15.9-32.4,32.5c-5.2,16.7-2.2,32.9,8.9,46.8
			c17.8,22.4,53.1,34.2,79.6,40c18.7,4.1,29.8,6.8,50.4,7.8c8.8,20.7,16.9,49.8,11.1,106.5c-3.2,31.6-15.5,65.1-37.9,87.7
			c-24.4,24.7-50.7,37.6-85.2,42c-31.2,3.9-65.1-2.8-92.8-17.5c-30.9-16.3-53.5-43.1-69.3-81.9c-1.9-4.6-3.7-9.4-5.3-14.4
			c17.6-18.2,40.8-48.4,50.2-70.8c10.3-24.5,16.8-47,20.1-69c4-26.7,1.7-47.8-6.8-62.6c-7.4-12.9-19.3-20.8-34.4-22.8
			c-16.6-2.2-31.7,2.7-43.8,14.1c-25.3,23.9-31.2,70.8-28.6,103.7c2.7,34.2,7.4,63.5,14.3,89.5c-3.8,3.3-7.7,6.5-11.6,9.5
			c-13.3,10.1-63.2,46-115.4,46.8c-41.2,0.7-80.7-11.5-111-34.1c-20.1-15-35.3-36.2-44.2-59.6c-3.8-10.1-5.9-20.3-7.9-30.8
			c-1.2-6.4-3.7-19.4-12.5-19.1c-19.9,0.8-5.7,41.3-2.5,50.6c7.1,20.2,18.5,38.8,33,54.6c7.4,8.1,15.6,15.4,24.4,22
			c36.1,26.9,82.6,41.3,130.9,40.6c55-0.9,98.2-25,124.7-45.2c0.9-0.7,1.8-1.4,2.8-2.1c0.4,1.1,0.8,2.1,1.3,3.2
			c18.5,45.5,46.8,78.6,84.1,98.4c30.6,16.2,61.9,24.5,93.3,24.8h1.4c28.5,0,56.6-7,81.2-20.2c50.1-26.8,83.4-76.9,89.2-133.9
			c3.3-32.3,4.7-70.4-8.7-109.8c2-0.1,4-0.2,5.9-0.4c72.8-5.3,129.2-32,163.3-77.3C1002.9,602.8,1013,550.8,1001.4,496z M226.2,532
			c22.9-18.6,53.4-26.9,82.7-23.2h0.1c12.1,1.5,28.6,3.6,36.5,19.6c6.5,13.2,0.4,24.1-6.5,33c-7.5,9.7-22,15.4-38.9,15.4
			c-0.3,0-0.6,0-0.8,0c-25.1-0.3-61.7-13.2-88.6-29.8C215.4,541.5,220.6,536.5,226.2,532z M456.8,343.9
			c10.5,17.5,14.1,31.2,14.2,42.1c0.1,21.2-17.9,35.7-37.3,24.8c-8.6-4.8-13.6-15.2-16.7-29.6c-4.9-22.8,0.2-62.6,3.4-80.8
			C435.9,314.9,448.4,329.8,456.8,343.9z M699.2,420.8c-26.3,29.8-50.7,48.8-67.1,52.1c-10.2,2-25.8-0.8-30.6-7.5
			c-8.3-11.6-6.5-17.8-3-25.9c8.6-19.6,55.5-44.2,126.2-52.4C717.2,398.7,708.4,410.3,699.2,420.8z M748.8,694
			c-12.1-1-19.3-2.3-30.7-4.8c-16.8-3.7-33.6-8.8-49-16.4c-9.9-4.9-20.2-12-22.8-23.5c-2.6-11.6,2.4-23.9,14.8-26.5
			c16.1-3.3,34.1,9.1,44.2,17.5C723,655.2,737.6,673.2,748.8,694z M461.6,740.8c-1-12.2-0.5-37.8,2.3-51c3.4-15.6,12-43.9,35.2-43.9
			c9.2,0,16.6,8.4,19.3,16.7c2.5,7.9,2,16.6,1.3,25.7c-2.5,30.6-12,61.3-26.1,84.2c-5.8,9.5-14.7,21.7-23.4,32.5
			C465,782.2,463.6,766.1,461.6,740.8z"/>
	</g>
</g>
</svg>
