<?xml version="1.0" encoding="utf-8"?>
<!-- Generator: Adobe Illustrator 27.8.1, SVG Export Plug-In . SVG Version: 6.00 Build 0)  -->
<svg version="1.1" id="Layer_1" xmlns="http://www.w3.org/2000/svg" xmlns:xlink="http://www.w3.org/1999/xlink" x="0px" y="0px"
	 viewBox="0 0 1050 1050" style="enable-background:new 0 0 1050 1050;" xml:space="preserve">
<style type="text/css">
	.st0{fill:#EEE3D9;}
</style>
<g id="VP">
	<g>
		<path class="st0" d="M859.6,365.2c-30.5-58.9-107.3-175.6-107.3-175.6c-2.9-5.1-9.4-7-14.6-4.2c-5.3,2.8-7.3,9.4-4.6,14.6
			c12.1,23.2,26.9,45.2,40.8,67.3c29.8,47.8,58,93,78.9,146.9c14.4,37.5,31.1,76.9,31.3,117.7c0.1,15.9-4.6,41.1-22.4,46.9
			c-25.2,8.3-55.2-20.6-71.3-36.2c-52.2-52.7-93.3-114.5-135.9-174.9c-40.5-57.4-81.5-115.2-130.1-166.2
			c-35.8-37.5-105.7-87.4-147.6-29.4c-24.9,34.3-11.3,84,3.6,119.5c46.5,111.3,114.2,213.6,175.9,316.8
			c19.3,32.3,43.5,77.6,59.4,111.7c18.6,39.7,49.7,105,15.1,140.2c-16.1,16.3-35.7,20.1-57.3,17.5c-17.8-2.1-35.8-10-51.9-17.7
			c-48.1-22.7-112.5-72.6-150.9-107.6c10.4-14.6,20.5-32.2,29.8-53.7c18-41.5,26.3-78.4,25.2-112.6c-1.3-42.1-17.7-80.1-44.9-104.3
			c-30.6-27.3-75.4-34.8-108.9-18.3c-34.2,16.8-56,57.6-54.3,101.5c1.3,35.2,16.4,72.5,44.8,110.7c21.5,28.9,46.5,55.2,72.4,79.1
			c1.9,1.8-23,22.7-38.8,31.2c-73.1,39.1-151.1-10.4-202.5-64.7c-2.1-2.2-7.8-6-12.6-2.1c-5.7,4.6-4.4,10.4-1.7,13.1
			c44.4,44.4,70.5,62.7,110.3,78.2c27.5,10.8,62,15.3,90.6,7.9c19.3-5,50.3-20.4,74.2-46.2c16.5,14.3,32.9,27.7,48.6,40.1
			c48.6,38.5,101.6,77.4,163.8,89.4c51,9.9,101.7-20.1,105.8-75.1c3-39.6-15-80.7-29.5-113.6c-33-74.9-74.2-146.2-115.1-217.1
			c-30.5-52.9-61.4-105.9-88.2-160.8c-17.4-35.8-49.5-93.1-35.1-134.3c5.6-15.8,24.8-21.1,39.5-16c35.7,12.6,59.4,49.7,81.8,78
			c33.2,42.2,64.1,86.1,96,129.2c43.6,60.5,88.7,123.1,143.4,176.6c34.2,32,92.5,71.6,134.2,28.4
			C948.4,543.9,886.1,418.6,859.6,365.2z M279.2,648.6c-23.8-39.2-32.6-74.8-25.9-106c2.3-10.8,7.6-25.9,19.9-37.1
			c16.4-15,42.5-18.4,65-9.6c4.5,1.7,8.9,4,13,6.7c21.8,14.4,36.6,40.3,40.6,71.1c4,30.4-2.7,60.8-9.1,83.9
			c-8.6,32-18.8,56.6-31.8,76.9C323.7,708.4,298.9,681.1,279.2,648.6z"/>
	</g>
</g>
<g id="C">
</g>
</svg>
