<?xml version="1.0" encoding="utf-8"?>
<!-- Generator: Adobe Illustrator 27.8.1, SVG Export Plug-In . SVG Version: 6.00 Build 0)  -->
<svg version="1.1" id="Layer_1" xmlns="http://www.w3.org/2000/svg" xmlns:xlink="http://www.w3.org/1999/xlink" x="0px" y="0px"
	 viewBox="0 0 1050 1050" style="enable-background:new 0 0 1050 1050;" xml:space="preserve">
<style type="text/css">
	.st0{fill:#EEE3D9;}
</style>
<path class="st0" d="M899.4,357.7c-8.4-5.2-15.6,0.6-16.7,7.8c-6.5,40.2-15.5,78.3-28.6,116.9c-13.1,38.8-28.6,76.8-46.8,113.5
	c-32.4,65.4-64.5,131.5-100.6,195c-12.1,21.2-31,49.4-58.3,50.7c-23.3,1.1-43.7-12.8-63.8-22.6c-29.7-14.4-58.2-30.9-86.5-47.8
	c-74.8-44.9-145.9-96.3-211.4-154c-56.8-50-112.2-119.4-111.9-199c0.2-43.6,16.7-87.3,45.7-120c71.7-80.7,187.4-46.3,265.7,5.8
	c1.7,1.1,3.4,2.3,5.1,3.5c-27.2,60.4-41.4,139.6,2.8,191.2c23.9,27.8,66.8,30.5,94.2,5.7c19.7-17.8,25.5-52,20-76
	c-9.9-43.1-39.3-88.8-74.5-122.3c8.6-17.1,18.4-33.2,28.3-47.5c23.9-34.7,56.1-64.5,95-80.7s84.8-17.7,122.6,0.7
	c14.4,7,27.2,16.6,40.4,25.7c1.2,0.8,2.4,1.6,3.8,2.3c5.3,2.8,11.7,4.3,15.3-0.1c4.7-5.6-1-13.8-6.6-18.6
	c-38.8-32.9-87.3-56.7-137.8-50.2c-79.8,10.4-146.6,70-186.5,137c-1.4,2.3-2.8,4.7-4.1,7.1c-3.2-2.2-6.5-4.3-9.7-6.3
	c-48-29.2-103.9-51.8-160.7-53.1c-99.3-2.2-184.3,82.6-194.1,180.2c-4.8,47.5,9.6,95.4,33.4,136.3c33.2,57.2,80.2,105.6,130.1,148.3
	c61.1,52.3,128.7,97,198.8,136.2c31.1,17.4,63,35.6,95.5,50.2c32.5,14.6,75.2,18.7,102.6-8c26.3-25.6,42-59.7,57-92.5
	c0.3-0.6,0.6-1.2,0.8-1.8c57-124.3,132.3-253.5,145-392.1C903.4,373.2,905.5,361.4,899.4,357.7z M584.8,448.3
	c-0.4,22.7-16.6,39.9-40,38.1c-24.1-1.8-35.1-31.9-38.3-52.2c-5.3-33.4,2.2-69.1,15.6-102.6C556.5,362.2,585.5,402.3,584.8,448.3z"
	/>
</svg>
