<?xml version="1.0" encoding="utf-8"?>
<!-- Generator: Adobe Illustrator 27.8.1, SVG Export Plug-In . SVG Version: 6.00 Build 0)  -->
<svg version="1.1" id="Layer_1" xmlns="http://www.w3.org/2000/svg" xmlns:xlink="http://www.w3.org/1999/xlink" x="0px" y="0px"
	 viewBox="0 0 1050 1050" style="enable-background:new 0 0 1050 1050;" xml:space="preserve">
<style type="text/css">
	.st0{fill:#FFFFFF;}
	.st1{fill:#33313A;stroke:#33313A;stroke-width:14;stroke-miterlimit:10;}
	.st2{fill:#2B7E70;stroke:#2B7E70;stroke-width:14;stroke-miterlimit:10;}
</style>
<path class="st0" d="M968.3,1050H81.7C36.6,1050,0,1013.4,0,968.3V81.7C0,36.6,36.6,0,81.7,0h886.5c45.1,0,81.7,36.6,81.7,81.7
	v886.5C1050,1013.4,1013.4,1050,968.3,1050z"/>
<g>
	<g>
		<path class="st1" d="M866.9,495.8c48.9-31,92-63.8,82.6-122.8c-5.6-35.2-39.8-59.9-101.7-73.4c-66.6-14.5-162.5-4.8-199.1,32.6
			c-29.8,30.5-31.5,61.1-29.2,87c4.2,47.2,36.6,102.3,96.2,163.9c-16.3,22.3-29.8,47-40,73.2c-14.4,36.7-25.9,68.1-35.2,93.4
			c-37.8,102.7-61.3,112.6-95.5,116.6c-63,7.4-113.2-72.8-166-157.7C351.2,663.9,270.2,509,252.3,424.8c-1.6-7.5-3.1-14.6-4.6-21.5
			c-15.6-72.7-23.4-109.2-6.8-131.9c2.9-3.9,11.1-6.9,20.1-5.4c6.9,1.1,20,5.5,23-2.2c0.8-2.2,0.8-4.4-0.2-6.5
			c-2-4.1-7.4-7.4-16.2-10c-19.9-5.8-39-0.5-49.8,14c-51.1,68.2,38.9,317.3,125.8,465.7c17.6,30.1,71.7,106.8,98.4,132.1
			c34.4,32.6,66.7,48.1,97.3,48.1c3.6,0,7.2-0.2,10.7-0.6c46.9-5.7,83.4-32.1,120.8-146c4.3-13,21.9-71.1,29.7-94.6
			c7.2-21.8,19-44.7,33.1-64.9c67,63.7,129.9,105.1,148.1,116.6c3.6,2.3,15.8,9.3,21.3,2.5c2.1-2.6,5.6-9.8-6.9-20
			c-7.9-6.5-16.5-13-25.6-20.1c-16.8-13-35.8-27.7-56.5-45.6c-33.4-29.1-49.4-45.1-61.2-57.9C797.3,531.4,859,500.7,866.9,495.8z
			 M848.9,472.3c-4.1,2.6-8.2,5.1-12.4,7.8c-32.1,20-68.5,42.6-101,78.7c-30.9-32.2-54.1-59.9-72.8-96.5
			c-12.1-23.5-28.7-68.4-4.1-103.2c18.5-26.3,54.2-39.1,108.8-39.1h3.8c23-0.4,49,2.5,69.6,7.6c39.5,9.9,59.7,26.2,65.7,52.7
			C914.7,416.1,899.6,440.2,848.9,472.3z"/>
	</g>
</g>
<g>
	<g>
		<path class="st2" d="M653.1,631.8c-2,6.7-10.3,7-21.8,6.6c-28.8-0.9-105.5,13.4-171.2,32.1C387.4,691.1,286.5,713,221.6,713
			c-42.4,0-74.4-10.7-95.1-31.7c-22.3-22.7-31.6-57-25.4-94c22-131.7,210.9-303.2,331.6-377.5c100.2-61.8,164.5-80.8,196.6-57.9
			c21.5,15.2,15.7,41.4,13.6,51.3c-1.3,5.5-4.1,10.1-7.6,12.3c-2.3,1.4-4.7,1.8-7.1,1c-9.4-2.6-5.6-21.2-5.6-21.2
			c0.9-8,2.1-17.1-4.8-23c-20.2-17.4-79.2,3.2-161.6,56.5C273.7,346.6,163.1,495.2,148.2,581c-3.4,19.9-0.2,49.9,20.4,68.8
			c38.8,35.6,118.3,32.5,283.6-11c82-21.6,156.5-29.9,189.6-21c5.7,1.6,9.1,3.6,10.8,6.7C653.8,626.6,653.9,629.1,653.1,631.8z"/>
	</g>
</g>
</svg>
