<?xml version="1.0" encoding="utf-8"?>
<!-- Generator: Adobe Illustrator 27.8.1, SVG Export Plug-In . SVG Version: 6.00 Build 0)  -->
<svg version="1.1" id="Layer_1" xmlns="http://www.w3.org/2000/svg" xmlns:xlink="http://www.w3.org/1999/xlink" x="0px" y="0px"
	 viewBox="0 0 1050 1050" style="enable-background:new 0 0 1050 1050;" xml:space="preserve">
<style type="text/css">
	.st0{fill:#EEE3D9;}
</style>
<g>
	<g>
		<path class="st0" d="M704.7,288.3c-2.3-0.7-4.1-2.5-5.3-5c-0.3-0.6-0.5-1.1-0.7-1.7c-1.8-6.7,5-11.6,7.6-13.4
			c26.8-19.3,53.3-34.7,78.7-46.1c29.5-13.1,62.9-23.2,93.9-28.2c5-0.8,8.6,2,9.5,5.2l0,0.1c0.8,2.9-0.4,6.6-4.9,8.4
			c-3.3,1.4-17.5,7.3-34.5,14.6c-17,7.2-36.8,15.7-51.2,22.1c-24.1,10.8-47.6,23.6-70.4,35.9c-3.8,2.1-7.5,4.1-11.3,6.1
			C713.1,287.8,708.7,289.5,704.7,288.3z"/>
	</g>
</g>
<g>
	<g>
		<path class="st0" d="M628.3,235.4c-3.5-1.4-5-3.8-5.7-6.2c-0.8-3.1-0.1-6.4,0.2-7.8c5.7-27.2,13.7-51.7,23.9-72.9
			c11.9-24.6,28.6-49.4,47.3-69.6c3.3-3.6,8-3.4,10.8-1.6c2.8,1.9,3.4,5.2,1.7,8.4c-2.8,5.4-23.9,46.4-35.4,70.5
			c-9.6,20.1-17.5,41.2-25,61.6c-1.3,3.4-2.5,6.8-3.8,10.1c-1.4,3.7-3.5,6.4-6.2,7.6C633.7,236.6,631.1,236.5,628.3,235.4z"/>
	</g>
</g>
<g>
	<g>
		<path class="st0" d="M949.8,478.3c-4.6-2-19.5-7.3-38.6-14.2c-26.4-9.6-59.2-21.4-81.6-30.3c-33.1-13-67.5-24.4-100.7-35.5
			c-5.5-1.8-11-3.7-16.5-5.5c-7-2.3-11.2-5.3-12.7-8.8c-0.1-0.3-0.2-0.7-0.3-0.9c-0.5-1.8-0.3-3.7,0.7-5.6
			c3.7-7.5,15.2-4.8,20.1-3.7c43.5,10,83.1,22,117.6,35.7l1,0.3c39.3,15.5,83.8,33.2,118.7,55.9c5,3.3,5.8,7.5,4.4,10.3
			C960.3,479,955.9,480.8,949.8,478.3z"/>
	</g>
</g>
<g>
	<g>
		<path class="st0" d="M752,641.1c-25.5-21.7-50.6-49-70.7-76.9c-17.3-24.1-33.7-52.5-48.5-84.6c-0.5-1.3-1.5-3.3-2.1-5.6
			c-1.1-4-1.1-8.7,3.1-11.8c2.2-1.6,4.5-2.1,6.9-1.7c3.4,0.7,6.6,3.4,9.4,8c2.4,3.9,4.9,7.8,7.2,11.8c14.5,23.6,29.6,48.1,46,71
			c19.7,27.5,54.7,74,59.3,80.1c0.9,1.2,1.6,2.5,1.8,3.6c0.7,2.8-0.1,5.3-1.8,6.8C760.5,643.8,756.2,644.6,752,641.1z"/>
	</g>
</g>
<path class="st0" d="M602.7,336.5C573.1,471.3,491,607,397,707.7c-29.8,32-65,58.4-102,81.3c-33.7,20.9-68.1,34.7-105.7,48.2
	c-13.3,4.7-25.8-0.3-28.4-7.2c-2.9-7.5,4.6-19.8,19.8-25.4c93.8-35,162.8-95.9,225.4-161.6c64.7-67.9,116.3-148.7,153.2-234.8
	c10.7-24.9,20.5-50.4,28-76.4c0,0,4.9-12.1,12.4-8.8C604.5,325.6,603.1,326.8,602.7,336.5z"/>
<path class="st0" d="M534.6,703.6C480.9,795,384.2,876.9,285.3,931.4c-31.3,17.3-65.9,29.5-101.2,39c-32.1,8.5-63.3,11.9-97.1,14.4
	c-11.9,0.9-25-7.6-23.9-18.9c1.1-11.4,8.8-16.6,22.6-17.8c84.4-7.2,154.1-37.7,219.8-73.1c67.8-36.5,127.6-84.7,176.7-139.7
	c14.2-15.9,27.8-32.4,39.7-49.6c0,0,7.9-9.4,15.6-1.9C543.1,691.7,538.4,695.7,534.6,703.6z"/>
</svg>
