<?xml version="1.0" encoding="utf-8"?>
<!-- Generator: Adobe Illustrator 27.8.1, SVG Export Plug-In . SVG Version: 6.00 Build 0)  -->
<svg version="1.1" xmlns="http://www.w3.org/2000/svg" xmlns:xlink="http://www.w3.org/1999/xlink" x="0px" y="0px"
	 viewBox="0 0 1050 1050" style="enable-background:new 0 0 1050 1050;" xml:space="preserve">
<style type="text/css">
	.st0{fill:#505051;}
	.st1{fill:#5D988E;}
</style>
<g id="VP">
	<g>
		<g>
			<path class="st0" d="M875,495c50.1-31.8,94.2-65.3,84.6-125.8c-5.7-36-40.8-61.3-104.1-75.1c-68.2-14.8-166.4-4.9-203.8,33.4
				c-30.5,31.2-32.2,62.5-29.8,89.1c4.3,48.3,37.4,104.7,98.4,167.8c-16.7,22.9-30.5,48.1-41,75c-14.7,37.6-26.5,69.8-36,95.6
				c-38.7,105.2-62.7,115.3-97.8,119.4c-64.6,7.6-115.8-74.5-169.9-161.5C347.2,667.2,264.2,508.7,246,422.5
				c-1.6-7.6-3.2-14.9-4.7-21.9c-16-74.4-24-111.8-6.9-135.1c2.9-4,11.4-7.1,20.6-5.6c7.1,1.2,20.5,5.6,23.6-2.2
				c0.9-2.2,0.8-4.5-0.2-6.6c-2-4.2-7.6-7.6-16.5-10.2c-20.4-6-39.9-0.5-50.9,14.3C158.6,325.1,250.6,580,339.6,732
				c18,30.8,73.4,109.4,100.7,135.3c35.2,33.4,68.3,49.3,99.6,49.3c3.7,0,7.3-0.2,11-0.7c48-5.8,85.3-32.9,123.6-149.4
				c4.4-13.4,22.4-72.8,30.4-96.9c7.4-22.3,19.4-45.8,33.9-66.5c68.6,65.2,133,107.6,151.6,119.4c3.7,2.4,16.2,9.5,21.8,2.6
				c2.1-2.7,5.8-10-7.1-20.4C897,698,888.3,691.3,879,684c-17.2-13.3-36.7-28.4-57.8-46.7c-34.2-29.8-50.6-46.2-62.6-59.3
				C803.7,531.5,866.9,500.1,875,495z M856.5,470.9c-4.2,2.6-8.4,5.3-12.7,8c-32.9,20.5-70.1,43.6-103.4,80.5
				c-31.7-33-55.4-61.3-74.6-98.8c-12.4-24.2-29.4-70-4.1-105.6c19-26.9,55.5-40,111.4-40h3.9c23.6-0.4,50.2,2.5,71.2,7.8
				c40.4,10.2,61.1,26.8,67.3,54C924,413.5,908.5,438.1,856.5,470.9z"/>
		</g>
	</g>
</g>
<g id="C">
	<g>
		<g>
			<path class="st1" d="M656.2,634.2c-2.1,6.9-10.5,7.1-22.3,6.7c-29.5-1-108.1,13.7-175.3,32.8c-74.4,21.1-177.7,43.6-244.2,43.6
				c-43.5,0-76.2-10.9-97.4-32.5c-22.9-23.3-32.4-58.3-26-96.2C113.5,454,306.9,278.4,430.5,202.3c102.6-63.2,168.5-82.6,201.3-59.3
				c22,15.6,16.2,42.4,14,52.5c-1.3,5.7-4.2,10.4-7.8,12.6c-2.3,1.4-4.8,1.8-7.3,1.1c-9.6-2.7-5.8-21.6-5.8-21.6
				c1-8.2,2.1-17.5-4.9-23.5c-20.7-17.8-81,3.3-165.4,57.8C267.6,342.3,154.4,494.4,139.1,582.4c-3.6,20.4-0.2,51.1,20.9,70.4
				c39.6,36.4,121.1,33.3,290.3-11.3c84-22.1,160.2-30.6,194.2-21.6c5.8,1.6,9.3,3.7,11.1,6.8C656.8,628.9,657,631.5,656.2,634.2z"
				/>
		</g>
	</g>
</g>
</svg>
