<?xml version="1.0" encoding="utf-8"?>
<!-- Generator: Adobe Illustrator 27.8.1, SVG Export Plug-In . SVG Version: 6.00 Build 0)  -->
<svg version="1.1" id="Layer_1" xmlns="http://www.w3.org/2000/svg" xmlns:xlink="http://www.w3.org/1999/xlink" x="0px" y="0px"
	 viewBox="0 0 1050 1050" style="enable-background:new 0 0 1050 1050;" xml:space="preserve">
<style type="text/css">
	.st0{fill:#EEE3D9;}
</style>
<path class="st0" d="M797.2,280.3c-9.8-1.1-13.8,7.2-11.7,14.2c11.4,39.1,19.6,77.4,24.3,117.9c4.8,40.7,7.1,81.6,6.4,122.6
	c-1.2,73-1.9,146.5-7.3,219.3c-1.8,24.3-6.8,57.9-30.9,70.8c-20.6,11-45,7.2-67.3,6.9c-33-0.3-65.8-3-98.6-6.1
	c-86.8-8.5-173.1-24.5-257-48.5c-72.8-20.8-152.6-59.8-186.4-131.8c-18.5-39.5-22.3-86-10.2-128C188.5,414,307.8,395.5,400.9,409
	c2,0.3,4.1,0.6,6.1,1c1.3,66.2,22.4,143.9,84.5,171.5c33.5,14.9,73.4-1.1,87.5-35.2c10.2-24.5,0.7-57.9-14.5-77.2
	c-27.4-34.7-73.6-63.4-119.7-78.6c0.4-19.1,2.4-37.9,5.2-55c6.7-41.6,23-82.3,51.2-113.6s69-52.3,111.1-51.9
	c16,0.2,31.7,3.3,47.5,5.9c1.4,0.2,2.9,0.4,4.4,0.4c6,0.3,12.4-1.1,13.8-6.6c1.8-7.1-6.8-12-13.9-14c-49.2-13.1-103.2-13.8-146,13.7
	C450.4,212.9,415.6,295.4,408.3,373c-0.3,2.7-0.5,5.4-0.7,8.2c-3.8-0.6-7.7-1.1-11.5-1.5c-55.9-5.8-116.1-2.3-167.9,20.9
	c-90.7,40.6-131.1,153.6-98.1,246c16,45,49.6,82.1,88.6,108.8c54.5,37.4,117.7,61,181.1,78.2c77.6,21.1,157.9,32.5,238,37.8
	c35.6,2.4,72.2,5.2,107.8,4.4c35.6-0.7,76-15.3,89.3-51.2c12.8-34.4,12.4-71.9,11.8-108c0-0.7,0-1.3,0-2
	c-1.8-136.7,10.9-285.7-37.1-416.4C807.5,292.6,804.3,281.1,797.2,280.3z M551.8,497.1c9.4,20.7,2.1,43.2-19.8,51.6
	c-22.5,8.7-45.4-13.8-57-30.7c-19.1-27.9-27.6-63.4-29.9-99.4C489.4,431.4,532.8,455.2,551.8,497.1z"/>
</svg>
