<?xml version="1.0" encoding="utf-8"?>
<!-- Generator: Adobe Illustrator 27.8.1, SVG Export Plug-In . SVG Version: 6.00 Build 0)  -->
<svg version="1.1" id="Layer_1" xmlns="http://www.w3.org/2000/svg" xmlns:xlink="http://www.w3.org/1999/xlink" x="0px" y="0px"
	 viewBox="0 0 1050 1050" style="enable-background:new 0 0 1050 1050;" xml:space="preserve">
<style type="text/css">
	.st0{fill:#EEE3D9;}
</style>
<path class="st0" d="M292.2,539c22.1,22,23.4,46.4,28.4,74.7c6.9,38.6,8.5,97.5,28.9,105.7c8.1,3.2,13.2-11.2,15.6-19.6
	c22.7-82.2,6.7-166.5,33.7-261.2c6.2-21.7,21-34.2,39.2-34.7c17.6-0.5,27.2,16.6,32,30.3c7.5,21.7,24.9,110.4,32,130.2
	c11.9,33.3,15,7.5,18.5-9.7c4-19.8,6-39.9,7.7-60.1c4.6-54.9,5.6-110,11.4-165c2.8-26.2,12.5-94.1,52.1-92.3
	c31.1,1.5,36.8,49.3,40.5,72.3c15.2,95.7,18.7,192.6,26.4,288.9c4.2,54.3,10.5,108.5,16.8,162.5c1.5,12.6,4.2,51.1,15.3,50.9
	c8.4,0.3,11.6-30.1,12.7-43.5c4.1-49.4,6-78.1,7.3-118.5c1.4-42.6,3.7-106.2,54.2-121.7c13.7-4.2,30.2-3.1,42.8-10.5
	c15.6-9.2,21.5-28.3,29-44.7c7.5-16.5,20.5-38.2,45.6-35.8c40,3.8,36.7,57.7,48.3,77.2c10.4,17.5,34.2,16.7,48.7,17.4
	c15.2,0.7,40-3.9,45.4-1.7c7.4,3.1,4.8,10.5-0.2,11.7c-8,2-89.7,12.5-111.3-9.1c-21.5-21.5-15.7-60.3-33.3-74.4
	c-10.8-8.6-22.2,10.6-27.6,23.5c-9.7,23.4-12.2,39.8-33.9,52.8c-18.1,10.8-37.3,4.4-58.3,19.1c-20.8,14.4-26.7,62.1-27.5,81.1
	c-4.4,99.1-1.2,186-32.4,201.4c-38.3,18.9-55.1-29.4-59.2-48.7c-6-28-9.2-56.9-12.4-85.3c-7.6-68-10.4-136.3-14-204.6
	c-3.2-61.4-7-122.8-15.4-183.8c-0.8-6-3.9-48.7-16.5-51.7c-25.9-6.3-27.8,95.1-29,108.5c-4.7,54.9-6.4,202.7-28.9,227.2
	c-12.9,14-38.4,10.7-47.2-13.5c-16.5-44.8-19.9-94.2-33.9-140c-1.7-5.6-8.7-16.9-15.9-15.7c-10.7,1.7-14.7,25.9-16.4,34
	c-15.9,76.7-8.3,157.2-26.2,233.5c-3.8,16.3-14,39.8-34.9,39.4c-14.5-0.3-29-9.8-34.9-23c-17.7-39.3-20-87.1-29.7-129
	c-10.3-44.4-63.8-53.5-124.5-50.4c-56.2,2.8-138.9,9.2-140.5-4.2c-2.3-18.9,49.1-2.9,127.2-12.4C220.7,507.6,275.5,522.3,292.2,539z
	"/>
</svg>
