<?xml version="1.0" encoding="utf-8"?>
<!-- Generator: Adobe Illustrator 27.8.1, SVG Export Plug-In . SVG Version: 6.00 Build 0)  -->
<svg version="1.1" id="Layer_1" xmlns="http://www.w3.org/2000/svg" xmlns:xlink="http://www.w3.org/1999/xlink" x="0px" y="0px"
	 viewBox="0 0 1050 1050" style="enable-background:new 0 0 1050 1050;" xml:space="preserve">
<style type="text/css">
	.st0{fill:#EEE3D9;}
</style>
<g>
	<g>
		<path class="st0" d="M287.1,301.8c-0.9,2.4-2.8,4.2-5.5,5.3c-0.6,0.3-1.2,0.5-1.8,0.6c-7.1,1.5-11.9-5.8-13.7-8.6
			c-18.9-29.1-33.7-57.6-44.3-84.8c-12.2-31.6-21.1-67.1-24.8-99.9c-0.6-5.3,2.5-8.9,5.9-9.7h0.1c3.1-0.7,6.9,0.8,8.6,5.6
			c1.3,3.5,6.8,18.7,13.5,36.9s14.6,39.4,20.6,54.8c10.1,25.8,22.3,51.1,34,75.6c2,4.1,3.9,8.1,5.8,12.2
			C287.1,293,288.6,297.7,287.1,301.8z"/>
	</g>
</g>
<g>
	<g>
		<path class="st0" d="M227.8,379.2c-1.6,3.6-4.2,5.1-6.8,5.7c-3.3,0.7-6.7-0.2-8.2-0.6c-28.2-7.4-53.5-17-75.2-28.8
			C112.4,341.8,87.3,323,67,302.4c-3.6-3.6-3.2-8.6-1.1-11.4c2.1-2.8,5.6-3.3,8.9-1.4c5.5,3.2,47.4,27.4,72.1,40.7
			c20.6,11.1,42.3,20.4,63.3,29.4c3.5,1.5,7,3,10.4,4.5c3.8,1.7,6.5,4,7.6,6.9C229.3,373.6,229.1,376.3,227.8,379.2z"/>
	</g>
</g>
<g>
	<g>
		<path class="st0" d="M498.8,54.6c-2.3,4.7-8.7,20.1-16.9,39.7c-11.4,27.2-25.5,61-35.9,84c-15.3,34-29,69.5-42.3,103.8
			c-2.2,5.7-4.4,11.3-6.6,17c-2.8,7.2-6.1,11.5-9.9,12.9c-0.3,0.1-0.7,0.2-1,0.3c-1.9,0.4-3.9,0.1-5.8-1c-7.7-4.3-4.3-16.2-2.9-21.3
			c12.7-45.1,27.3-86,43.4-121.5l0.4-1c18.3-40.4,39.1-86.2,64.7-121.6c3.7-5.1,8.2-5.7,11-4.1C500.1,43.6,501.8,48.3,498.8,54.6z"
			/>
	</g>
</g>
<g>
	<g>
		<path class="st0" d="M659.4,270.2c-24,25.6-53.9,50.5-84.2,70.2c-26.1,16.9-56.8,32.6-91.2,46.5c-1.4,0.5-3.5,1.4-6,1.9
			c-4.2,0.9-9.2,0.7-12.2-3.9c-1.6-2.4-2-4.8-1.4-7.3c0.9-3.5,3.9-6.7,8.9-9.4c4.2-2.3,8.4-4.7,12.7-7c25.5-14,51.9-28.6,76.8-44.6
			c29.8-19.2,80.4-53.6,87-58.1c1.3-0.9,2.7-1.5,3.9-1.7c3-0.6,5.5,0.4,7,2.2C662.7,261.4,663.3,266,659.4,270.2z"/>
	</g>
</g>
<path class="st0" d="M332.5,411.2c139.8,37.9,277.8,130.9,378.6,234.5c32,32.9,57.9,71.1,80,111.1c20.2,36.4,32.9,73.2,45.1,113.3
	c4.3,14.2-1.6,27-9,29.4c-8,2.7-20.5-5.8-25.6-22C769.7,777.4,709.4,702,643.7,633c-67.9-71.3-149.9-129.5-238.3-172.6
	c-25.6-12.5-51.8-24.1-78.7-33.3c0,0-12.4-5.7-8.6-13.5C321.1,408.7,322.3,410.3,332.5,411.2z"/>
<path class="st0" d="M713.8,501.3c93.1,60.9,174,166.5,226.1,272.9c16.5,33.7,27.6,70.6,35.7,108.1c7.3,34.1,9.2,67,10.1,102.5
	c0.3,12.5-9.2,25.8-21,24.1c-11.9-1.7-17-10.1-17.5-24.6c-3.2-88.8-31.7-163.5-65.4-234.1c-34.8-72.9-82.3-138.1-137.4-192.3
	c-15.9-15.7-32.5-30.8-50-44.1c0,0-9.5-8.8-1.2-16.4C701.8,491.8,705.7,496.9,713.8,501.3z"/>
</svg>
