<?xml version="1.0" encoding="utf-8"?>
<!-- Generator: Adobe Illustrator 27.8.1, SVG Export Plug-In . SVG Version: 6.00 Build 0)  -->
<svg version="1.1" id="Layer_1" xmlns="http://www.w3.org/2000/svg" xmlns:xlink="http://www.w3.org/1999/xlink" x="0px" y="0px"
	 viewBox="0 0 1050 1050" style="enable-background:new 0 0 1050 1050;" xml:space="preserve">
<style type="text/css">
	.st0{fill:#EEE3D9;}
</style>
<g>
	<g>
		<path class="st0" d="M299.4,275.3c-1,2.2-3,3.7-5.7,4.6c-0.6,0.2-1.2,0.3-1.8,0.5c-6.9,0.9-10.8-6.6-12.2-9.4
			c-15.4-29.2-27-57.6-34.8-84.3c-8.9-31-14.3-65.5-15-96.9c-0.1-5.1,3.2-8.2,6.5-8.7l0.1,0c3-0.4,6.5,1.3,7.6,6
			c0.9,3.5,4.8,18.3,9.7,36.2c4.8,17.8,10.5,38.6,14.8,53.8c7.4,25.4,16.8,50.4,25.9,74.7c1.6,4.1,3,8,4.5,12
			C300,266.9,301.1,271.5,299.4,275.3z"/>
	</g>
</g>
<g>
	<g>
		<path class="st0" d="M236.5,343.7c-1.9,3.3-4.5,4.4-6.9,4.8c-3.2,0.4-6.4-0.8-7.7-1.3c-26.2-9.4-49.3-20.7-68.9-33.7
			c-22.7-15.2-45-35.1-62.4-56.4c-3.1-3.8-2.3-8.4-0.1-10.9c2.3-2.5,5.6-2.7,8.6-0.5c5,3.5,42.7,30.1,64.9,44.8
			c18.6,12.3,38.4,23,57.6,33.3c3.2,1.8,6.4,3.4,9.5,5.2c3.5,1.9,5.9,4.3,6.7,7.2C238.4,338.5,237.9,341.1,236.5,343.7z"/>
	</g>
</g>
<g>
	<g>
		<path class="st0" d="M521.3,58.8C518.7,63,511.4,77.1,502,95c-13.1,24.8-29.4,55.7-41.3,76.6c-17.4,31-33.5,63.5-49,94.8
			c-2.5,5.2-5.2,10.4-7.7,15.6c-3.2,6.6-6.8,10.4-10.5,11.4c-0.3,0.1-0.7,0.1-0.9,0.2c-1.9,0.2-3.7-0.2-5.5-1.5
			c-6.9-4.7-2.7-15.7-0.9-20.4c15.9-41.7,33.2-79.3,51.6-111.6l0.4-0.9c20.8-36.8,44.4-78.4,71.7-109.9c4-4.5,8.2-4.7,10.8-2.9
			C523.5,48.5,524.7,53.1,521.3,58.8z"/>
	</g>
</g>
<g>
	<g>
		<path class="st0" d="M655.3,277.1c-25,22.3-55.5,43.4-85.9,59.4c-26.3,13.8-56.6,26.1-90.5,36.4c-1.4,0.3-3.5,1-5.8,1.3
			c-4.1,0.5-8.8-0.1-11.3-4.7c-1.3-2.4-1.5-4.7-0.7-7.1c1.2-3.3,4.3-6.1,9.2-8.2c4.2-1.8,8.4-3.8,12.7-5.5
			c25.4-11.1,51.7-22.7,76.7-35.8c30-15.7,80.8-44,87.5-47.7c1.3-0.7,2.7-1.2,3.8-1.3c2.9-0.3,5.2,0.8,6.5,2.7
			C659.2,269.1,659.4,273.4,655.3,277.1z"/>
	</g>
</g>
<path class="st0" d="M333.1,383c129.4,47.9,252.5,147.9,339.3,254.9c27.6,33.9,48.9,72.4,66.5,112.2c16.1,36.3,25,72.2,33.2,111.3
	c2.8,13.8-3.9,25.5-11,27.1c-7.8,1.8-19-7.3-22.4-23.1C716.8,767.8,666,691,609.5,620c-58.3-73.4-131.3-135.7-211.4-184.1
	c-23.2-14-47.1-27.3-71.8-38.3c0,0-11.3-6.5-7-13.5C322.5,379.7,323.5,381.3,333.1,383z"/>
<path class="st0" d="M687.3,501c83.1,65.8,150.9,172.8,191.3,278.3c12.8,33.4,20.1,69.3,24.7,105.6c4,33,3.1,64.3,0.9,98.2
	c-0.7,11.9-11,23.7-22,21.1c-11.1-2.7-15.2-11-14.5-24.8c4.5-84.6-16.1-157.8-42.1-227.8c-26.8-72.2-66.3-138.1-114-194.3
	c-13.8-16.3-28.3-32-43.7-46.2c0,0-8.2-9.1,0.3-15.7C676.7,491,680,496.2,687.3,501z"/>
</svg>
