<?xml version="1.0" encoding="utf-8"?>
<!-- Generator: Adobe Illustrator 27.8.1, SVG Export Plug-In . SVG Version: 6.00 Build 0)  -->
<svg version="1.1" id="Layer_1" xmlns="http://www.w3.org/2000/svg" xmlns:xlink="http://www.w3.org/1999/xlink" x="0px" y="0px"
	 viewBox="0 0 1050 1050" style="enable-background:new 0 0 1050 1050;" xml:space="preserve">
<style type="text/css">
	.st0{fill:#EEE3D9;}
</style>
<path class="st0" d="M209.6,335.4c-8.4-69.9-3-132.4,26.4-196.9c11.7-25.4,32.7-68.5,59.7-79.3c17.9-7.3,36,2.1,50.2,12.8
	c101.3,75.3,161.8,198.9,169.8,323.8c2.5,33.3,16.4,62.3,49.9,39.7c61.3-41.1,171.3-91.1,256.1-96.3c47-3.4,96.9,1.7,138.7,25.7
	c47.6,26.4,35.6,66.4,14.8,107c-27.4,55.4-66,106.1-116.1,142.7c-34.3,25.3-68.1,37.3-108,51.6c-7.9,2.9-53.9,13.5-66.9,16.8
	c-10.4,2.7-21.1,11.6-21.9,24c-1.3,21.1,21.9,42,29.7,81.9c6.9,35.9-1.3,66.1-22.5,95.6c-18.8,26.7-46.4,47.3-77.9,56.4
	c-42.9,13.1-90.4,7.3-130.5-11.9c-3-1.6-6.2-3.1-9.1-4.7c-2.1-1.3-6.8-4-8.8-5.1c-2.6-1.7-7.4-4.9-10-6.6
	c-10.4-7.6-20.5-16.1-29.5-25.4c-27.9-28.6-86.5-95.3-65.2-183.6c11-45.7,68.4-89.8,108.1-52.7c25.5,23.8,12.7,64.9-5.9,90.1
	c-20.2,27.4-40.3,40.1-77.9,55.9c-58.9,24.6-238.8,27-280.8-136.2c-11.6-44.9,17.1-97.9,59.5-121c15.1-8.2,31.8-12.2,47.7-17.1
	c15.1-4.6,32.3-8.4,39-23.5c6.2-13.8-8.3-34.3,7.5-38.9c9.2-2.7,14.3,11.5,16.3,19.9c1.5,6.6,1.9,15.4-1.5,24.5
	c-10.5,28-28.3,29.9-60.8,42.8c-58.1,23.1-73.8,64.4-72,97.1c6.1,115.3,143.3,158.4,226.7,132.7c24.9-7.6,55.9-15.9,80.4-50.4
	c11.4-16.1,25.1-43.2,7.2-58.7c-15.7-13.6-35.7,5.5-44,17c-13.8,19.1-20.1,41.3-16.5,64.8c3.5,22.8,11.9,44.7,23.3,64.6
	c9.8,17.1,21.8,32.9,35.4,47c20.6,21.5,46.7,37.6,75.5,45.4c30,8.1,62.5,7.5,91.1-5c18-7.9,33.7-21,45.4-36.9
	c15.8-21.4,24.7-48.7,20.8-75.3c-1.2-8.9-4.4-16.8-7.8-26.7c-7-19.8-20.9-44.5-13.5-66c9.8-28.5,32.7-37,45.5-40.2
	c30-7.4,57-16.8,78.9-26.8c21.7-9.9,43.1-21.1,61.9-35.6c51.4-39.8,106.6-113.3,127.5-167.8c10.9-28.1-1.9-38.5-26.7-49.2
	c-33.6-14.5-70.7-15.3-106.6-13.3c-81.6,3.9-200.6,59.8-247.6,95.5c-30,22.8-70.3,18.3-86.3-22.1c-4.9-12.3-3.9-25.6-4.8-38.4
	c-8.6-117-58-218.4-151.4-290.7c-11.9-9-22.4-18.1-37.3-12.6c-16.6,6.2-26.2,27.4-33.7,41.6c-11.2,21.8-16.8,36.4-23.1,65.9
	c-10.3,48.2-11.4,80.8-6.4,129.7c0.4,3.8-3.9,10.9-10.4,11.6C215.6,345.2,210.8,341.8,209.6,335.4z"/>
</svg>
