<?xml version="1.0" encoding="utf-8"?>
<!-- Generator: Adobe Illustrator 27.8.1, SVG Export Plug-In . SVG Version: 6.00 Build 0)  -->
<svg version="1.1" id="Layer_1" xmlns="http://www.w3.org/2000/svg" xmlns:xlink="http://www.w3.org/1999/xlink" x="0px" y="0px"
	 viewBox="0 0 1600 1600" style="enable-background:new 0 0 1600 1600;" xml:space="preserve">
<style type="text/css">
	.st0{fill:#EEE3D9;}
</style>
<path class="st0" d="M432.6,603.5c15.7,52.2-2.5,91-18.3,138.9c-21.4,65.1-67.8,157.4-43.4,186.9c9.7,11.7,29.7-6.3,40.4-17.4
	c103.2-107.8,148.8-251,268.9-374.5c27.6-28.3,60.7-35.2,89.1-20.8c27.4,13.9,28.1,48.3,24.1,73.3c-6.4,39.6-53.2,190.9-58.8,227.2
	c-9.4,61.1,16.9,24,36.4,0.5c22.7-27.2,42.4-56.5,61.9-86.4c52.7-80.8,100.3-164.8,154.7-244.8c26-38.1,97.4-134.6,156.9-99
	c46.8,28.3,15.8,106.6,2.3,145c-56,160.1-131.3,312.2-199.5,467.1c-38.6,87.2-73.9,175.9-109,264.4c-8.1,20.7-35.9,82.3-18.6,91.1
	c12.8,7.4,42.9-36.7,55.7-56.4c47.4-72.7,74.1-115.3,109.8-176.6c37.7-64.5,93.9-160.5,184.7-142.5c24.6,4.9,49,20.4,74.7,19.4
	c31.6-1.2,56.6-25.7,81.9-44.9c25.2-19.1,63.4-41.9,100.1-17.3c58.5,39.2,8.6,119.4,10.1,159.2c1.4,35.6,38.9,54.2,60.6,67.2
	c22.7,13.8,65,27.1,71.4,35.2c8.9,10.9-1.2,20-10.1,17.9c-13.9-3.6-148.7-55.3-164-106.4c-15.2-51,25.9-106,10.5-142.3
	c-9.5-22.3-43.1-2.1-62.1,13.2c-34.4,27.9-51.8,51.1-96,53.2c-36.9,1.7-61.1-24-105.7-19.1c-44,5-92.6,73.4-109.8,102.1
	c-89,149-156.4,285.6-217.1,283.3c-74.6-2.6-60.6-91-50.8-124.5c14.1-48,33.1-95.4,51.8-141.8C860,1023,912.4,915.3,963.7,807.2
	c46.1-97.2,91.3-195.1,128.9-295.9c3.7-10,34.4-78.2,17.7-93.4c-34.7-31.2-121.9,123.4-134.8,143.2
	C922.7,641.7,797.1,868,742.1,887.3c-31.5,11-68.2-15.3-61.6-60.1c11.9-82.8,47.7-161.7,64-244c1.9-10,0.7-33.2-11.5-37.5
	c-17.9-6.3-44.2,27.6-53.5,38.7C591.2,689.5,536,819.7,445,922.6c-19.4,22-54.7,49.8-86.6,31.8c-22-12.3-36.4-39.2-34.7-64.5
	c5.2-75.2,41.7-150.8,61.5-223.6c21.1-77-54-135.3-149.9-181.1c-89-42.5-221.6-101.1-213-123.3c12.2-31.1,78.1,36.2,206.2,86.6
	C348.5,495.7,420.7,563.9,432.6,603.5z"/>
</svg>
